<svg viewBox="0 0 800 600" fill="none" xmlns="http://www.w3.org/2000/svg">
<defs>
<linearGradient id="grad1" x1="0%" y1="0%" x2="100%" y2="0%">
  <stop offset="0%" style="stop-color:#6366f1;stop-opacity:1" />
  <stop offset="100%" style="stop-color:#818cf8;stop-opacity:1" />
</linearGradient>
<linearGradient id="grad2" x1="0%" y1="0%" x2="100%" y2="0%">
  <stop offset="0%" style="stop-color:#a855f7;stop-opacity:1" />
  <stop offset="100%" style="stop-color:#d8b4fe;stop-opacity:1" />
</linearGradient>
</defs>
<rect width="800" height="600" fill="#f0f9ff"/>
<path d="M150 100 C 200 50, 300 50, 350 100" stroke="url(#grad1)" stroke-width="20" stroke-linecap="round"/>
<path d="M450 100 C 500 50, 600 50, 650 100" stroke="url(#grad2)" stroke-width="20" stroke-linecap="round"/>
<path d="M150 200 C 200 150, 300 150, 350 200" stroke="#6ee7b7" stroke-width="20" stroke-linecap="round"/>
<path d="M450 200 C 500 150, 600 150, 650 200" stroke="#38bdf8" stroke-width="20" stroke-linecap="round"/>
<circle cx="250" cy="350" r="50" fill="#f472b6"/>
<circle cx="550" cy="350" r="50" fill="#fb923c"/>
<polygon points="300,450 400,550 200,550" fill="#22c55e"/>
<polygon points="600,450 700,550 500,550" fill="#facc15"/>
</svg>