<svg viewBox="0 0 1200 600" xmlns="http://www.w3.org/2000/svg">
    
        <defs>
          <linearGradient id="grad1-4" x1="0%" y1="0%" x2="100%" y2="100%">
            <stop offset="0%" style="stop-color:#8b5cf6;stop-opacity:1" />
            <stop offset="100%" style="stop-color:#ec4899;stop-opacity:1" />
          </linearGradient>
        </defs>
        <rect width="1200" height="600" fill="url(#grad1-4)"/>
        
        <!-- Book/Guide elements -->
        <rect x="400" y="150" width="400" height="300" rx="15" fill="#f59e0b" opacity="0.7"/>
        <rect x="405" y="155" width="190" height="290" rx="10" fill="#8b5cf6" opacity="0.4"/>
        <rect x="605" y="155" width="190" height="290" rx="10" fill="#ec4899" opacity="0.4"/>
        
        <!-- Lines representing text -->
        <line x1="430" y1="200" x2="570" y2="200" stroke="white" stroke-width="4" opacity="0.5"/>
        <line x1="430" y1="240" x2="570" y2="240" stroke="white" stroke-width="4" opacity="0.5"/>
        <line x1="430" y1="280" x2="570" y2="280" stroke="white" stroke-width="4" opacity="0.5"/>
        <line x1="630" y1="200" x2="770" y2="200" stroke="white" stroke-width="4" opacity="0.5"/>
        <line x1="630" y1="240" x2="770" y2="240" stroke="white" stroke-width="4" opacity="0.5"/>
        <line x1="630" y1="280" x2="770" y2="280" stroke="white" stroke-width="4" opacity="0.5"/>
        
        <!-- Decorative elements -->
        <circle cx="200" cy="200" r="80" fill="#8b5cf6" opacity="0.3"/>
        <circle cx="1000" cy="400" r="100" fill="#ec4899" opacity="0.3"/>
        <polygon points="150,500 200,450 250,500 200,550" fill="#f59e0b" opacity="0.4"/>
        <polygon points="1050,150 1100,100 1150,150 1100,200" fill="#8b5cf6" opacity="0.4"/>
      
  </svg>